<svg xmlns="http://www.w3.org/2000/svg" viewBox="0 0 90 112.5" x="0px" y="0px"><defs><style>.a{fill:none;}</style></defs><title>iiii</title><path class="a" d="M44.927,35.9q.231-.446.485-.879l.031-.087c-.116-.39-.23-.781-.346-1.171-.083-.278-.161-.556-.24-.835l-.106.017Q44.815,34.422,44.927,35.9Z"/><path class="a" d="M55.185,37.414c.405.558.822,1.109,1.233,1.664l.031-.021.154-.128c-.352-.564-.71-1.148-1.092-1.717C55.4,37.28,55.293,37.346,55.185,37.414Z"/><path class="a" d="M33.212,55.6l.157-.2a.576.576,0,0,1-.236-.529,12.617,12.617,0,0,1,.745-2.718c-1.152,1.82-2.3,3.641-3.475,5.447q-.542.834-1.1,1.659C30.811,58.478,32.047,56.762,33.212,55.6Z"/><path class="a" d="M59.633,57.6c.107.317.224.63.334.947.094.179.187.359.282.538l.006-.014a.368.368,0,0,1,.03-.043q-.305-.788-.611-1.575Z"/><path class="a" d="M57.071,37.8a6.429,6.429,0,0,0-.388-1.269c-.106.058-.213.115-.319.175C56.608,37.068,56.842,37.434,57.071,37.8Z"/><path class="a" d="M58.872,36.57c.1-.142.2-.286.287-.433-.081-.189-.164-.378-.243-.577-.075.023-.149.05-.223.076A7.453,7.453,0,0,1,58.872,36.57Z"/><path class="a" d="M48.018,54.153l-.7-.613c-.109.207-.23.409-.343.614.3.182.6.367.892.562C47.916,54.528,47.967,54.341,48.018,54.153Z"/><path class="a" d="M50.718,56.535c-.391-.349-.781-.7-1.175-1.045-.04.063-.073.129-.113.192a.532.532,0,0,1-.077.084q.672.5,1.327,1.033C50.693,56.712,50.7,56.623,50.718,56.535Z"/><path class="a" d="M56.748,41.388c-.527.437-1.064.862-1.6,1.293l.08.158q.8-.683,1.584-1.381C56.792,41.435,56.771,41.411,56.748,41.388Z"/><path class="a" d="M52.346,37.213q.518-.283,1.034-.568l-.111-.168c-.329.2-.666.384-1,.569C52.292,37.1,52.319,37.157,52.346,37.213Z"/><path class="a" d="M29.289,60.373a3.7,3.7,0,0,1-.832.234.6.6,0,0,1-.084-.006q-.375.541-.753,1.082c-.228.429-.449.862-.675,1.292Q28.113,61.671,29.289,60.373Z"/><path class="a" d="M51.547,35.564q.385-.2.767-.4h0c-.265.113-.534.218-.8.333C51.525,35.517,51.536,35.541,51.547,35.564Z"/><path class="a" d="M51.7,58.937q-.931-.592-1.88-1.142c.923.622,1.847,1.246,2.752,1.9C52.284,59.438,51.994,59.188,51.7,58.937Z"/><path class="a" d="M54.3,36.13c.095-.054.188-.11.283-.164-.06-.073-.117-.15-.179-.221-.081.056-.166.105-.247.16C54.2,35.98,54.25,36.056,54.3,36.13Z"/><path class="a" d="M65.287,34.99c-.1.106-.2.214-.306.318.226-.164.449-.334.677-.5Z"/><polygon class="a" points="63.052 63.336 63.053 63.338 63.052 63.336 63.052 63.336"/><path class="a" d="M59.062,55.9v0l-.013-.034Z"/><path class="a" d="M51.791,57.5c-.028.047-.056.1-.085.143l.092.077c.252.161.5.329.751.5C52.294,57.982,52.048,57.736,51.791,57.5Z"/><path class="a" d="M35.75,39.08q.332-.875.67-1.749c-.42.465-.832.94-1.211,1.433Z"/><path class="a" d="M55.448,35.455c.18-.109.359-.222.537-.334-.076-.136-.152-.271-.232-.406-.181.151-.369.293-.556.436C55.282,35.25,55.365,35.352,55.448,35.455Z"/><path class="a" d="M58.027,36.97c-.079-.063-.148-.134-.224-.2a6.571,6.571,0,0,1,.23.825q.236-.253.452-.518A.62.62,0,0,1,58.027,36.97Z"/><path class="a" d="M57.559,40.691l.039.058q.646-.589,1.275-1.194C58.436,39.934,58,40.318,57.559,40.691Z"/><path class="a" d="M51.968,50.719c.071-.264.158-.539.249-.818l-.045-.071q-.247.681-.514,1.354l.137.212C51.854,51.17,51.908,50.943,51.968,50.719Z"/><path class="a" d="M51,50.076l-.017.057.01.016c.013-.034.027-.068.04-.1Z"/><path class="a" d="M53.943,53.141c-.133.317-.268.633-.406.948l.085.132Q53.776,53.679,53.943,53.141Z"/><path class="a" d="M48.551,52.2c-.164.137-.333.267-.5.4l.307.283C48.423,52.654,48.487,52.425,48.551,52.2Z"/><path class="a" d="M53.421,51.81c-.159-.257-.323-.511-.483-.767-.139.5-.267,1-.394,1.51l.343.531Q53.159,52.45,53.421,51.81Z"/><path class="a" d="M43.109,40.482q.1-.331.207-.659l-.217-.343C43.1,39.813,43.108,40.148,43.109,40.482Z"/><path class="a" d="M51.466,52.714,51.2,52.3c-.09.207-.176.414-.271.619.135.131.268.263.408.391C51.378,53.109,51.419,52.91,51.466,52.714Z"/><path class="a" d="M36.823,50.776l.024-.155c-.122-.084-.247-.163-.369-.248q-.656,1.357-1.329,2.7Q36,51.934,36.823,50.776Z"/><path class="a" d="M45.753,38.6c.067-.194.135-.387.2-.582l-.284.13a.568.568,0,0,1-.123.031c-.058.177-.121.358-.169.524l-.043.154C45.469,38.769,45.612,38.686,45.753,38.6Z"/><path class="a" d="M36.754,43.474q-.162.332-.32.664c.123-.2.248-.405.371-.609Z"/><path class="a" d="M50.463,53.853c-.112.22-.222.441-.342.658q.406.376.812.751c.051-.279.1-.559.156-.838C50.877,54.238,50.671,54.044,50.463,53.853Z"/><path class="a" d="M47.885,30.892c.074.188.152.374.227.562.067-.008.134-.02.2-.028-.265-.49-.519-.986-.77-1.484C47.659,30.258,47.761,30.579,47.885,30.892Z"/><path class="a" d="M52.224,53.887c-.013.056-.022.113-.035.169l.191.165.025-.054Z"/><path class="a" d="M53.159,56.185l-.439-.368c-.127.252-.256.5-.39.75.231.216.458.436.688.653C53.053,56.871,53.1,56.526,53.159,56.185Z"/><path class="a" d="M42.967,35.537c.031.456.053.9.071,1.349.335.318.672.634,1,.96.022-.053.042-.107.064-.16-.1-1.151-.207-2.3-.3-3.453Q43.383,34.884,42.967,35.537Z"/><path class="a" d="M53.436,39.271c-.006.024-.015.046-.021.07.218.419.438.839.658,1.259q.675-.431,1.341-.861c-.351-.51-.687-1.029-1.028-1.52-.038-.055-.082-.122-.132-.2-.357.236-.711.471-1.061.7A.454.454,0,0,1,53.436,39.271Z"/><path class="a" d="M56.581,60.556c-.255-.382-.51-.764-.762-1.148-.06.1-.12.206-.181.308.313.3.617.613.928.918Z"/><path class="a" d="M54.547,57.464l-.023-.036c-.172.237-.36.467-.556.692l.411.39C54.428,58.16,54.482,57.81,54.547,57.464Z"/><path class="a" d="M47.634,37.54l.321-.168L48,37.3c-.023-.064-.044-.129-.067-.193l-.368.169Z"/><path class="a" d="M54.284,47.081c.154.34.312.679.469,1.018-.112-.378-.232-.754-.346-1.131Z"/><path class="a" d="M30.368,37.171l-.079-.043c-.682,1.711-1.3,3.445-2.136,5.078l.453.413C29.044,40.868,30.014,39.019,30.368,37.171Z"/><path class="a" d="M23.985,38.5l.26.218q.222-.667.445-1.332Q24.348,37.952,23.985,38.5Z"/><path class="a" d="M22.016,36.991l.027.018.017-.067Z"/><path class="a" d="M25.479,39.786l.168.149q.127-.491.257-.98C25.764,39.233,25.626,39.512,25.479,39.786Z"/><path class="a" d="M21.061,36.024c-.065.071-.135.14-.2.209l.187.12C21.049,36.244,21.05,36.132,21.061,36.024Z"/><path class="a" d="M27.6,58.587l-.006-.008q-.166.314-.331.629l.151-.214C27.479,58.858,27.54,58.722,27.6,58.587Z"/><path class="a" d="M26.606,34.107c-.024.144-.057.286-.086.429.141.041.28.083.42.126.028-.051.052-.1.08-.155.289-.52,1.021-.147.914.385-.006.028-.013.056-.019.084.314.11.625.234.935.36q.258-.583.528-1.157c-.921-.033-1.846-.081-2.773-.134A.515.515,0,0,1,26.606,34.107Z"/><path class="a" d="M26.481,35.548c-.06-.018-.119-.038-.178-.055q-.116.45-.248.895C26.192,36.105,26.34,35.828,26.481,35.548Z"/><path class="a" d="M51.4,39.852c.124.391.245.782.354,1.179.075-.229.162-.455.241-.683-.108-.222-.209-.448-.318-.669Z"/><path class="a" d="M25.269,34.193l.128.033.142-.242-.464-.026A.47.47,0,0,1,25.269,34.193Z"/><path class="a" d="M24.473,33.991a.521.521,0,0,1,.095-.063l-.44-.025Z"/><path class="a" d="M28.453,36.231c-.25-.1-.5-.192-.757-.283-.272,1.177-.582,2.344-.892,3.512A24.345,24.345,0,0,0,28.453,36.231Z"/><path class="a" d="M30.667,41.09a12.752,12.752,0,0,1-1.208,2.159.544.544,0,0,1-.078.078c.1.094.206.189.309.282.061.055.124.109.186.164a17.992,17.992,0,0,1,.59-1.734A4.459,4.459,0,0,1,30.667,41.09Z"/><path class="a" d="M58.38,32.186c.1-.034.207-.062.31-.094a.5.5,0,0,1,.272-.554c-.222,0-.444,0-.666,0-.143,0-.286.01-.429.013A4.87,4.87,0,0,1,58.38,32.186Z"/><path class="a" d="M56.462,32.5q-.181-.44-.331-.888c-.306.016-.611.035-.916.054q.311.523.625,1.043Q56.15,32.607,56.462,32.5Z"/><path class="a" d="M51.244,33.034a14.832,14.832,0,0,1,1.8-.716c.456-.145.88.516.486.836-.108.088-.221.167-.331.252.1.06.208.109.306.175q.625-.249,1.257-.482c-.29-.462-.564-.909-.806-1.337-1.375.112-2.744.26-4.112.434.118.215.236.43.352.646A1.85,1.85,0,0,1,51.244,33.034Z"/><path class="a" d="M59.527,31.623c.062.063.119.13.179.194.223-.051.444-.107.673-.146a.5.5,0,0,1,.487.836c-.092.1-.19.184-.284.279.27.3.545.605.833.892.1-.524.15-1.052.283-1.581a.5.5,0,0,1,.836-.221c.3.335.6.662.909.984a1.448,1.448,0,0,1,.917-1.02,4.433,4.433,0,0,1,1.785-.163c.046-.025.1-.047.142-.071-2.293-.045-4.585-.083-6.878-.068A.479.479,0,0,1,59.527,31.623Z"/><path class="a" d="M31.553,43.88c-.179.3-.365.593-.556.886.133.116.265.234.4.349.169-.4.331-.814.5-1.22A.948.948,0,0,1,31.553,43.88Z"/><path class="a" d="M65.227,37.361c.5-.363,1.009-.723,1.508-1.092,1.153-.854,2.293-1.726,3.4-2.641.454-.376,1.176-.866,1.739-1.419C69.5,33.384,67.248,35.557,65.227,37.361Z"/><path class="a" d="M24.069,65.051a.507.507,0,0,1-.15-.144c-.043.115-.087.229-.129.344-.05.135-.111.267-.163.4L23.7,65.6C23.821,65.414,23.946,65.233,24.069,65.051Z"/><path class="a" d="M65.008,70.966a5.118,5.118,0,0,0,.293.9l.268-.29a.5.5,0,0,1,.122-.131c-.176-.153-.348-.311-.522-.468A.434.434,0,0,1,65.008,70.966Z"/><path class="a" d="M26.9,41.057l.07.064c.04-.111.082-.221.122-.331C27.024,40.879,26.964,40.971,26.9,41.057Z"/><path class="a" d="M35.457,34.417c.015,0,.03,0,.045,0l.044-.121Z"/><path class="a" d="M54.5,62.471c-.57-.5-1.162-.965-1.763-1.419-2.845-1.751-5.6-3.786-8.563-5.347l-.159.124c1.815,1.072,3.594,2.2,5.364,3.342,1.144.7,2.284,1.4,3.408,2.122C53.368,61.667,53.937,62.065,54.5,62.471Z"/><path class="a" d="M32.081,38.105c-.047-.027-.095-.051-.142-.077q-.315.751-.617,1.511c.195-.385.383-.729.519-.992C31.919,38.4,32,38.253,32.081,38.105Z"/><path class="a" d="M32.669,41.987c.051-.132.1-.265.151-.4-.134.262-.274.521-.413.781a1.574,1.574,0,0,0,.164-.144C32.6,42.146,32.638,42.068,32.669,41.987Z"/><path class="a" d="M31.334,34.45a6.238,6.238,0,0,1,.105,2.175l.046.026a12.084,12.084,0,0,1,1.489-2.461c-.595.013-1.19.027-1.793.023A.436.436,0,0,1,31.334,34.45Z"/><path class="a" d="M44.967,27.634q.764,1.51,1.541,3.013a.52.52,0,0,1,.219-.023c-.546-1.435-1.03-2.891-1.493-4.355C45.149,26.725,45.067,27.181,44.967,27.634Z"/><path class="a" d="M58.411,41.968c-.047.047-.093.1-.14.143.861-.768,1.724-1.532,2.6-2.282l.094-.09C60.1,40.468,59.254,41.214,58.411,41.968Z"/><path class="a" d="M56.663,33.983c.11.158.226.312.342.465.073-.05.147-.1.22-.149-.066-.162-.132-.324-.2-.485Q56.843,33.9,56.663,33.983Z"/><path class="a" d="M59.469,65.7c-.39-.349-.779-.7-1.172-1.047q.5.472,1,.934Z"/><path class="a" d="M58.408,34.7c.046-.016.094-.027.14-.042l-.033-.078-.118.089Z"/><path class="a" d="M34.153,61.551l-.055.041c-.031.024-.064.045-.1.069l-.645.529c.365-.267.727-.538,1.089-.808C34.35,61.44,34.251,61.495,34.153,61.551Z"/><path class="a" d="M49.2,34.1l.244-.134c0-.053-.006-.105,0-.159a.481.481,0,0,1,.055-.145c-.23-.445-.461-.889-.7-1.326l-.316.045Q48.842,33.24,49.2,34.1Z"/><path class="a" d="M42.234,20.495c.029-.108.057-.216.084-.324-.038.087-.074.174-.111.26Z"/><path class="a" d="M36.451,34.727c.295-.079.593-.148.9-.2a.431.431,0,0,1,.025-.2c.048-.131.1-.262.147-.393-.271.025-.544.043-.815.066C36.62,34.244,36.537,34.486,36.451,34.727Z"/><path class="a" d="M32.846,36.133l.1-.045c.024-.075.048-.15.071-.225C32.964,35.954,32.9,36.04,32.846,36.133Z"/><path class="a" d="M67.945,33.48a.434.434,0,0,1-.228.306c-.372.2-.752.385-1.13.571-.134.108-.273.209-.4.329-.01.009-.021.011-.031.02a.551.551,0,0,1,.3.458c.857-.708,1.69-1.463,2.554-2.168C68.648,33.143,68.291,33.3,67.945,33.48Z"/><path class="a" d="M65.8,69.448c.686.818,1.367,1.639,2.032,2.475.041.031.085.06.127.091q-1.6-3.7-3.364-7.316A31.337,31.337,0,0,1,65.8,69.448Z"/><path class="a" d="M58.026,33.7l.068-.051c-.04-.08-.077-.164-.119-.242l-.062.025C57.951,33.525,57.989,33.614,58.026,33.7Z"/><path class="a" d="M62.171,34.712c.327-.243.669-.466,1-.7-.234-.228-.463-.46-.683-.7A6.383,6.383,0,0,1,62.171,34.712Z"/><path class="a" d="M60.2,33.853c.033.129.065.257.1.386l.035-.006a.5.5,0,0,1,.482.633,6.477,6.477,0,0,1-.261.685c.017.123.03.247.043.371.365-.283.729-.566,1.1-.844a.534.534,0,0,1-.366-.123A11.212,11.212,0,0,1,60.2,33.853Z"/><path class="a" d="M42.749,27.614a.4.4,0,0,1,.045.045c.046-.287.078-.574.116-.862-.018-.042-.035-.084-.054-.126C42.807,26.981,42.78,27.3,42.749,27.614Z"/><path class="a" d="M58.6,61.725c0,.014,0,.028,0,.042l.023.034Z"/><path class="a" d="M19.515,34.355a9.556,9.556,0,0,1-1.273-.327.543.543,0,0,1-.256-.209l-.19.01a9.5,9.5,0,0,0,1.417,1.282A2.893,2.893,0,0,1,19.515,34.355Z"/><path class="a" d="M30.544,34.212l-.079,0c-.011.038-.026.076-.037.114A.381.381,0,0,1,30.544,34.212Z"/><path class="a" d="M46.223,40.191l.081.092c.107-.213.22-.422.33-.633l-.245.1C46.334,39.9,46.278,40.045,46.223,40.191Z"/><path class="a" d="M41.037,51.677c.227-.693.456-1.384.7-2.073a.587.587,0,0,1-.274-.219.46.46,0,0,1-.247-.211c-.182.163-.365.326-.545.491a.568.568,0,0,1,.31.749,11.122,11.122,0,0,1-.7,1.187c.161.094.325.182.488.274C40.852,51.808,40.946,51.743,41.037,51.677Z"/><path class="a" d="M44.418,42.169l-.007-.071c-.042.147-.085.294-.127.441C44.328,42.415,44.374,42.292,44.418,42.169Z"/><path class="a" d="M40.532,44.924a.494.494,0,0,1,.661.093q.011-.713.044-1.425l-.339-.215C40.784,43.895,40.664,44.412,40.532,44.924Z"/><path class="a" d="M41.123,42.324l.176.112q.045-.722.1-1.445C41.308,41.433,41.216,41.878,41.123,42.324Z"/><polygon class="a" points="48.092 44.023 48.095 44.021 48.094 44.019 48.092 44.023"/><path class="a" d="M39.884,52.545c-.07-.04-.138-.082-.208-.123q-.235.3-.484.578l.062.03Q39.567,52.785,39.884,52.545Z"/><path class="a" d="M48.955,43.5c.256-.7.5-1.412.7-2.131-.048-.107-.1-.214-.145-.321l-.211.134c-.265.585-.524,1.171-.77,1.765C48.671,43.132,48.813,43.317,48.955,43.5Z"/><path class="a" d="M40.345,47.213c-.112.189-.23.374-.344.562-.005.055-.015.108-.02.163a.508.508,0,0,1-.361.452q-.469.746-.959,1.477c-.024.109-.048.219-.075.328.8-.788,1.619-1.559,2.475-2.3C40.823,47.668,40.581,47.443,40.345,47.213Z"/><path class="a" d="M45.775,41.372l.006-.005.051-.1-.01-.012Z"/><path class="a" d="M54.507,55.582a12.231,12.231,0,0,0,.511-1.122c-.105-.178-.209-.357-.315-.535-.136.46-.261.923-.371,1.389Z"/><path class="a" d="M52.659,48.575l-.056.05-.011.031.026.04C52.632,48.655,52.646,48.615,52.659,48.575Z"/><path class="a" d="M53.378,49.5c-.025.085-.048.172-.073.257.121.19.241.382.362.573C53.567,50.056,53.472,49.778,53.378,49.5Z"/><path class="a" d="M37.5,53.346c-.056-.021-.111-.047-.166-.067-.518.423-1.024.856-1.527,1.3-.358.391-.713.787-1.069,1.184C35.69,54.977,36.637,54.2,37.5,53.346Z"/><path class="a" d="M50.337,42.861l-.064-.138-.072.212Z"/><path class="a" d="M53.5,44.043l-.006-.018-.042.034C53.469,44.055,53.483,44.044,53.5,44.043Z"/><path class="a" d="M57.089,58.028l-.244-.424c-.067.112-.133.224-.2.338.132.126.258.259.387.388C57.053,58.23,57.071,58.129,57.089,58.028Z"/><path class="a" d="M55.909,57.248q.183-.312.376-.618-.205-.355-.411-.711c-.086.362-.162.726-.236,1.09C55.728,57.089,55.82,57.167,55.909,57.248Z"/><path class="a" d="M20.951,34.512l0,.023.016-.023Z"/><path class="a" d="M48.168,39.63l.048-.031c.068-.23.125-.463.18-.7-.092.04-.184.082-.277.122-.022.038-.042.077-.063.115C48.1,39.3,48.131,39.466,48.168,39.63Z"/><path class="a" d="M37.67,42.113c.063-.208.127-.415.188-.623l-.095-.059-.554,1.116a.516.516,0,0,1,.124.081l.013.013Z"/><path class="a" d="M37.222,56.073a.409.409,0,0,1-.43.034c-.55.545-1.085,1.11-1.616,1.68q1-.695,2-1.378c.444-.407.887-.816,1.323-1.232C38.071,55.475,37.649,55.777,37.222,56.073Z"/><path class="a" d="M35.391,40.029c-.182-.106-.362-.216-.545-.322-.158.422-.329.841-.51,1.242a4.677,4.677,0,0,0,.73-.057Z"/><path class="a" d="M38.23,52.562l.018.007.063-.073Z"/><path class="a" d="M36.434,46.084q-.628,1.049-1.249,2.1l.014.011,1.129-1.793C36.363,46.3,36.4,46.191,36.434,46.084Z"/><path class="a" d="M34.268,42.651c-.056.19-.12.376-.177.566a.415.415,0,0,1,.165-.172l.424-1.129a4.816,4.816,0,0,1-.826,0c-.022.039-.043.08-.064.118v0A.483.483,0,0,1,34.268,42.651Z"/><path class="a" d="M23.84,34.848l-.095-.023c-.044.119-.091.238-.132.357C23.685,35.069,23.765,34.96,23.84,34.848Z"/><path class="a" d="M22.634,34.551l-.321-.083q-.071.386-.136.766C22.335,35.013,22.485,34.785,22.634,34.551Z"/><path class="a" d="M33.548,37.8l.283-.6c-.078.011-.156.019-.234.032-.034.057-.066.115-.1.173-.039.1-.078.2-.118.3Z"/><path class="a" d="M32.993,38.631c-.417.958-.852,1.91-1.254,2.873.482-.922.936-1.858,1.381-2.8Z"/><path class="a" d="M47.983,45.388l.379-.283.053-.145c-.179.087-.359.173-.54.256Z"/><path class="a" d="M44.84,47.732c.055-.146.11-.292.166-.437q-.232-.317-.467-.631-.4.951-.812,1.9C44.1,48.284,44.469,48.008,44.84,47.732Z"/><path class="a" d="M42.953,52.267a.563.563,0,0,1-.162-.14l-.08.058c.009,0,.017,0,.027,0C42.811,52.211,42.88,52.244,42.953,52.267Z"/><path class="a" d="M46.8,49.734c-.087-.117-.176-.231-.263-.348-.206.153-.41.309-.617.462q-.12.284-.251.562l.12.11C46.122,50.258,46.46,50,46.8,49.734Z"/><path class="a" d="M41.195,46.284c0-.19,0-.38,0-.57-.068.126-.142.248-.211.373Z"/><path class="a" d="M43.343,50.017l-.195-.178c-.072.158-.143.318-.217.476C43.07,50.217,43.205,50.116,43.343,50.017Z"/><path class="a" d="M45.467,44.478c.029.208.062.416.1.623.13-.048.262-.091.392-.141.02-.047.039-.094.059-.141.059-.134.123-.27.184-.4l-.415-.661C45.681,43.995,45.571,44.235,45.467,44.478Z"/><path class="a" d="M46.7,43.334c.1-.224.207-.448.311-.673l-.041-.05c-.177.1-.352.208-.53.308Z"/><path class="a" d="M40.875,38.892l.02-.083,0,0-.014.047Z"/><path class="a" d="M48.631,48.27l-.192-.3c-.066.2-.126.407-.19.61C48.377,48.475,48.5,48.372,48.631,48.27Z"/><path class="a" d="M36.967,49.362l-.043.09.035.024C36.96,49.438,36.964,49.4,36.967,49.362Z"/><path class="a" d="M44.68,21.293c.048-.187.091-.374.142-.561-.048-.282-.1-.563-.144-.844-.008.444-.021.887-.025,1.331C44.663,21.244,44.672,21.268,44.68,21.293Z"/><path class="a" d="M42.893,15.455c.309-.206.817-.085.773.378a9.669,9.669,0,0,1-.495,2.186.591.591,0,0,1,.3.146.4.4,0,0,1,.234-.144c.029-.852.079-1.7.124-2.554-.126-.536-.261-1.07-.417-1.6C43.258,14.4,43.082,14.931,42.893,15.455Z"/><path class="a" d="M37.92,32.87q.424-1.134.866-2.259c-.342.076-.787-.226-.625-.612.27-.643.524-1.293.775-1.944.388-1.211.641-2.455.929-3.7-.254.852-.506,1.705-.772,2.554-.633,2.025-1.317,4.035-2.02,6.038C37.356,32.924,37.638,32.9,37.92,32.87Z"/><path class="a" d="M42.6,16.242c-.342.9-.7,1.795-1.025,2.7.038.085.071.172.108.257A12.136,12.136,0,0,0,42.6,16.242Z"/><path class="a" d="M41.136,20.456l-.034-.081c-.061.19-.119.38-.179.57C40.992,20.782,41.065,20.62,41.136,20.456Z"/><path class="a" d="M34.42,34.2l.035-.054-.025,0C34.428,34.169,34.423,34.186,34.42,34.2Z"/><path d="M19.235,36.245a.622.622,0,0,0,.407.341.509.509,0,0,0,.408.191c.3.2.6.393.9.6s.562.427.845.639l-.109.463a.5.5,0,0,0,.914.385l.065-.113a.487.487,0,0,0,.728.522c.177.149.352.3.528.452-.145.469-.283.941-.4,1.42a.5.5,0,0,0,.914.385c.2-.289.362-.592.539-.891.135.122.269.246.4.369-.039.16-.082.318-.119.478a.5.5,0,0,0,.836.487c.054-.055.1-.115.152-.171.121.112.243.221.364.333-.2.57-.4,1.139-.588,1.715s.6.822.914.385c.262-.367.5-.744.727-1.128.225.207.449.417.674.623q.638.581,1.285,1.154c-.018.094-.048.185-.063.28a.5.5,0,0,0,.871.429q.283.247.567.491c-1.713,4.017-3.592,7.957-5.406,11.935-.976,2.14-1.8,4.327-2.611,6.534-.3.82-.644,1.625-.995,2.427a22.155,22.155,0,0,0-2.2,2.157.507.507,0,0,0,.354.854,2.86,2.86,0,0,0,.553-.021c-.122.294-.231.593-.346.889-.261.346-.526.689-.781,1.041a.481.481,0,0,0,.37.73.517.517,0,0,0,.881-.165c.007-.02.016-.04.022-.06.067-.037.142-.08.248-.141a.469.469,0,0,0,.156-.686q1.1-1.142,2.233-2.246c.859-.729,1.744-1.429,2.566-2.143l.139-.118a.5.5,0,0,0,.643.734A122.1,122.1,0,0,0,38.686,59.4c.374-.294.751-.587,1.129-.88a19.067,19.067,0,0,0,3.349-2.045l.221.134c1.775,1.165,3.592,2.265,5.406,3.372.758.489,1.517.976,2.272,1.469,1.057.69,2.119,1.373,3.177,2.062,2.256,1.632,4.426,3.4,6.766,4.895.2.457.4.915.615,1.366.258.533,1.026.143.914-.385,0-.014-.007-.027-.01-.041q.674.422,1.392.781a6.066,6.066,0,0,0,.814,2.854.5.5,0,0,0,.684.179,2.367,2.367,0,0,0,1.018-1.071c0-.006,0-.011.006-.017.245.2.482.412.734.607.184.235.374.465.553.7a.526.526,0,0,0,.659.163c.17.117.329.246.5.36.34.223.9-.156.734-.565-2.164-5.206-4.653-10.258-7.24-15.265-2.175-4.21-3.953-8.609-5.986-12.878q1.171-.99,2.315-2.007,3.567-2.481,7.1-5.013c1.712-1.235,3.408-2.5,5.035-3.841,1.039-.859,2.445-1.665,2.784-3.042a.5.5,0,0,0-.615-.615c-.053.016-.1.04-.155.058a.43.43,0,0,0-.239-.077c-5.312.064-10.53-.039-15.749.14-.039-.019-.069-.049-.109-.067a.577.577,0,0,0-.6.089c-.47.019-.941.043-1.412.067-.161-.262-.324-.522-.493-.777-.295-.445-1.121-.176-.914.385.055.15.121.3.195.464-1.39.086-2.781.2-4.176.347a31.724,31.724,0,0,1-1.837-3.779,34.622,34.622,0,0,1-1.667-6.683c0-.074.012-.147.013-.222a.451.451,0,0,0-.1-.3c-.28-1.662-.554-3.323-.93-4.955.034-.662.069-1.324.116-1.986A.5.5,0,0,0,45,13.167V12.55a.5.5,0,0,0-.99-.038c-.07-.2-.124-.4-.2-.6-.157-.407-.871-.539-.964,0a31.486,31.486,0,0,1-1.878,5.775c-.339-.706-.668-1.415-1.037-2.108-.3-.568-1.166-.064-.864.5.509.955.978,1.927,1.43,2.906-.816,2.385-1.491,4.814-2.236,7.221-.644,2.081-1.341,4.145-2.06,6.2a.524.524,0,0,0-.634.165c-.126.169-.245.345-.368.516-1.46.094-2.93.144-4.429.122-3.86-.058-7.8-.507-11.676-.437a.508.508,0,0,0-.571.008c-.568.018-1.134.048-1.7.094a.505.505,0,0,0-.432.752A9.289,9.289,0,0,0,19.235,36.245ZM17.8,33.829l.19-.01a.543.543,0,0,0,.256.209,9.556,9.556,0,0,0,1.273.327,2.893,2.893,0,0,0-.3.756A9.5,9.5,0,0,1,17.8,33.829Zm12.747.382a.381.381,0,0,0-.116.112c.012-.038.026-.076.037-.114Zm-9.593.3h.012l-.016.023Zm1.362-.044.321.083c-.149.234-.3.462-.457.683Q22.242,34.854,22.313,34.468Zm1.526.38c-.075.112-.154.221-.227.334.041-.119.088-.238.132-.357Zm7.9,6.656c.4-.963.837-1.915,1.254-2.873l.127.073C32.674,39.646,32.22,40.582,31.738,41.5ZM33.6,37.23c.078-.012.156-.021.234-.032l-.283.6-.169-.094c.04-.1.079-.2.118-.3C33.53,37.345,33.563,37.287,33.6,37.23Zm.193,4.8c.022-.038.043-.079.064-.118a4.816,4.816,0,0,0,.826,0l-.424,1.129a.415.415,0,0,0-.165.172c.057-.189.122-.376.177-.566a.483.483,0,0,0-.479-.616Zm1.057-2.326c.182.106.363.215.545.322l-.325.863a4.677,4.677,0,0,1-.73.057C34.517,40.548,34.688,40.129,34.846,39.707Zm.329,18.08c.531-.57,1.067-1.135,1.616-1.68a.409.409,0,0,0,.43-.034c.427-.3.849-.6,1.275-.9-.436.416-.879.825-1.323,1.232Q36.172,57.094,35.175,57.787Zm.01-9.6q.621-1.053,1.249-2.1c-.035.107-.071.214-.106.321L35.2,48.2Zm3.045,4.375.082-.065-.063.073ZM37.21,42.548l.554-1.116.095.059c-.062.208-.126.415-.188.623l-.323.529-.013-.013A.516.516,0,0,0,37.21,42.548Zm3.982,3.166c0,.19,0,.38,0,.57l-.213-.2C41.051,45.962,41.124,45.84,41.192,45.714Zm-.3-6.9-.02.083,0-.031.014-.047Zm6.114,3.852c-.1.225-.207.449-.311.673l-.26-.415c.178-.1.354-.205.53-.308Zm1.623,5.609c-.128.1-.254.205-.382.307.064-.2.125-.408.19-.61Zm-2.613-3.451c-.02.047-.039.094-.059.141-.13.05-.262.093-.392.141-.038-.207-.071-.415-.1-.623.1-.243.214-.483.32-.725l.415.661C46.141,44.549,46.077,44.684,46.018,44.819Zm-.1,5.029c.206-.153.411-.308.617-.462.086.117.176.231.263.348-.336.263-.673.524-1.01.786l-.12-.11Q45.8,50.132,45.916,49.848Zm2.445-4.743-.379.283-.107-.171c.181-.083.36-.17.54-.256Zm-3.355,2.189c-.056.145-.111.291-.166.437-.371.277-.743.552-1.113.83q.413-.946.813-1.9Q44.775,46.978,45.006,47.295Zm-1.663,2.722c-.138.1-.273.2-.412.3.074-.158.144-.317.217-.476Zm-.552,2.11a.563.563,0,0,0,.162.14c-.073-.024-.141-.057-.215-.079-.009,0-.017,0-.027,0Zm7.546-9.266-.136.074.072-.212Zm-2.245,1.161,0,0,0,0Zm1.415-2.973c.048.107.1.214.145.321-.2.718-.442,1.429-.7,2.131-.142-.185-.284-.37-.428-.553.246-.593.505-1.18.77-1.765ZM38.586,50.194c.027-.109.05-.218.075-.328q.491-.731.959-1.477a.508.508,0,0,0,.361-.452c.005-.055.015-.108.02-.163.114-.187.232-.372.344-.562.236.23.477.455.716.683C40.2,48.635,39.386,49.406,38.586,50.194Zm7.194-8.827-.006.005.046-.122.01.012Zm-4.8,9.047a.568.568,0,0,0-.31-.749c.18-.165.363-.328.545-.491a.46.46,0,0,0,.247.211.587.587,0,0,0,.274.219c-.24.689-.469,1.38-.7,2.073-.092.067-.185.132-.276.2-.162-.092-.327-.18-.488-.274A11.122,11.122,0,0,0,40.977,50.414ZM46.3,40.283l-.081-.092c.055-.146.111-.291.166-.437l.245-.1C46.523,39.861,46.41,40.07,46.3,40.283Zm-1.885,1.886c-.044.123-.09.246-.134.37.042-.147.085-.294.127-.441Zm-3.225,2.848a.494.494,0,0,0-.661-.093c.132-.512.252-1.029.366-1.547l.339.215Q41.206,44.3,41.193,45.017Zm-.07-2.693c.093-.446.185-.891.279-1.333q-.057.722-.1,1.445Zm-1.447,10.1c.07.041.138.083.208.123q-.317.24-.63.485L39.192,53Q39.441,52.717,39.676,52.422ZM56.285,56.63q-.193.306-.376.618c-.089-.081-.181-.159-.271-.239.074-.364.15-.728.236-1.09Q56.081,56.274,56.285,56.63Zm.561.975.244.424c-.018.1-.036.2-.055.3-.129-.129-.255-.262-.387-.388C56.712,57.829,56.779,57.717,56.846,57.6ZM53.5,44.043c-.016,0-.031.012-.047.016l.042-.034ZM48.4,38.9c-.055.233-.112.466-.18.7l-.048.031c-.036-.164-.072-.327-.112-.49.022-.038.042-.077.063-.115C48.211,38.985,48.3,38.943,48.4,38.9ZM36.967,49.362c0,.038-.007.076-.009.114l-.035-.024Zm.371,3.917c.056.02.111.046.166.067-.867.85-1.814,1.631-2.762,2.412.356-.4.711-.793,1.069-1.184C36.313,54.135,36.819,53.7,37.337,53.279ZM52.6,48.625l.056-.05c-.013.041-.027.08-.04.121l-.026-.04Zm.775.876c.094.278.189.555.288.83-.12-.191-.24-.383-.362-.573C53.33,49.673,53.353,49.586,53.378,49.5Zm1.64,4.959a12.231,12.231,0,0,1-.511,1.122l-.175-.268c.11-.466.235-.929.371-1.389C54.809,54.1,54.912,54.282,55.018,54.46ZM58.6,61.725l.023.076-.023-.034C58.6,61.753,58.6,61.739,58.6,61.725ZM51.758,41.031c-.109-.4-.23-.788-.354-1.179l.276-.173c.109.221.211.447.318.669C51.92,40.576,51.833,40.8,51.758,41.031Zm-6.216-2.852a.568.568,0,0,0,.123-.031l.284-.13c-.062.195-.129.388-.2.582-.141.086-.284.169-.424.258l.043-.154C45.42,38.537,45.483,38.356,45.542,38.179Zm-2.432,2.3c0-.334-.006-.668-.01-1l.217.343Q43.209,40.151,43.109,40.482Zm-6.355,2.992.051.056c-.123.2-.248.405-.371.609Q36.593,43.806,36.754,43.474Zm-.276,6.9c.122.085.247.164.369.248l-.024.155Q36,51.935,35.149,53.069,35.821,51.733,36.478,50.374ZM48.551,52.2c-.064.229-.128.457-.191.686l-.307-.283C48.218,52.464,48.388,52.334,48.551,52.2Zm2.429-2.064L51,50.076l.032-.029c-.013.034-.027.068-.04.1Zm1.193-.3.045.071c-.092.28-.178.554-.249.818-.061.224-.115.451-.173.676l-.137-.212Q51.924,50.51,52.173,49.829Zm.765,1.214c.161.256.324.51.483.767q-.261.64-.534,1.273l-.343-.531C52.671,52.048,52.8,51.545,52.938,51.044Zm1,2.1q-.168.538-.321,1.079l-.085-.132C53.675,53.774,53.809,53.458,53.943,53.141ZM51.2,52.3l.27.417c-.047.2-.088.395-.133.592-.139-.128-.272-.26-.408-.391C51.02,52.711,51.106,52.5,51.2,52.3Zm.994,1.76c.012-.056.022-.113.035-.169l.181.28-.025.054Zm2.334,3.372.023.036c-.065.347-.12.7-.168,1.046l-.411-.39C54.164,57.894,54.352,57.665,54.524,57.428Zm1.295,1.98c.252.384.508.766.762,1.148l-.016.078c-.311-.3-.616-.615-.928-.918C55.7,59.613,55.759,59.511,55.818,59.408ZM54.284,47.081l.123-.114c.113.378.234.753.346,1.131C54.6,47.76,54.438,47.421,54.284,47.081ZM48,37.3l-.044.068-.321.168-.07-.26.368-.169C47.954,37.175,47.975,37.24,48,37.3Zm2.123,17.206c.12-.217.229-.438.342-.658.208.191.414.385.627.571-.056.279-.105.558-.156.838Q50.528,54.885,50.121,54.511Zm2.6,1.306.439.368c-.062.341-.106.687-.141,1.034-.23-.217-.457-.436-.688-.653C52.464,56.318,52.593,56.068,52.72,55.816Zm1.666-17.6c.341.491.677,1.01,1.028,1.52q-.666.43-1.341.861c-.22-.419-.44-.84-.658-1.259.006-.024.015-.046.021-.07a.454.454,0,0,0-.243-.55c.35-.229.7-.464,1.061-.7C54.3,38.1,54.347,38.164,54.386,38.219Zm-10.351-.373c-.325-.326-.662-.642-1-.96-.018-.444-.04-.893-.071-1.349q.417-.652.836-1.3c.089,1.152.2,2.3.3,3.453C44.077,37.739,44.057,37.793,44.035,37.846ZM42.794,27.658a.4.4,0,0,0-.045-.045c.031-.316.058-.633.107-.943.019.042.036.084.054.126C42.872,27.084,42.841,27.371,42.794,27.658ZM30.4,57.6c1.173-1.806,2.323-3.627,3.475-5.447a12.617,12.617,0,0,0-.745,2.718.576.576,0,0,0,.236.529l-.157.2c-1.165,1.164-2.4,2.879-3.913,3.658Q29.859,58.43,30.4,57.6ZM47.318,53.54l.7.613c-.05.187-.1.375-.152.562-.293-.195-.592-.379-.892-.562C47.088,53.949,47.209,53.747,47.318,53.54Zm2.112,2.143c.04-.063.074-.129.113-.192.393.346.784.7,1.175,1.045-.013.088-.025.176-.038.264q-.654-.53-1.327-1.033A.532.532,0,0,0,49.43,55.683Zm5.722-13c.532-.431,1.069-.856,1.6-1.293.023.023.044.047.067.07q-.785.7-1.584,1.381ZM57.6,40.749l-.039-.058c.443-.373.876-.757,1.314-1.136Q58.243,40.159,57.6,40.749ZM56.45,39.058l-.031.021c-.411-.555-.828-1.106-1.233-1.664.108-.069.218-.134.327-.2.382.569.74,1.153,1.092,1.717ZM45.1,33.763c.117.391.23.781.346,1.171l-.031.087q-.253.434-.485.879-.114-1.479-.176-2.954l.106-.017C44.936,33.207,45.014,33.486,45.1,33.763ZM28.373,60.6a.6.6,0,0,0,.084.006,3.7,3.7,0,0,0,.832-.234q-1.174,1.3-2.344,2.6c.226-.43.447-.863.675-1.292Q28,61.142,28.373,60.6Zm31.881-1.525-.006.014c-.095-.179-.188-.359-.282-.538-.11-.316-.227-.63-.334-.947l.04-.146q.3.788.611,1.575A.368.368,0,0,0,60.254,59.076ZM57.071,37.8c-.229-.365-.463-.73-.707-1.093.106-.06.212-.117.319-.175A6.429,6.429,0,0,1,57.071,37.8ZM53.38,36.645q-.516.285-1.034.568c-.028-.055-.054-.112-.081-.167.338-.185.676-.37,1-.569ZM35.75,39.08l-.541-.316c.38-.493.791-.967,1.211-1.433Q36.082,38.2,35.75,39.08ZM51.706,57.645c.029-.047.056-.1.085-.143.258.234.5.48.759.716-.25-.167-.5-.335-.751-.5ZM59.062,55.9l-.012-.038.013.034ZM58.032,37.6a6.571,6.571,0,0,0-.23-.825c.076.065.145.136.224.2a.62.62,0,0,0,.458.109Q58.268,37.343,58.032,37.6Zm-2.048-2.475c-.178.112-.357.225-.537.334-.082-.1-.165-.2-.25-.3.187-.143.375-.285.556-.436C55.833,34.85,55.909,34.985,55.985,35.121Zm-1.4.845c-.094.055-.188.11-.283.164-.049-.075-.1-.15-.144-.225.081-.054.167-.1.247-.16C54.464,35.816,54.521,35.893,54.582,35.966Zm-2.268-.8q-.382.2-.767.4c-.011-.023-.021-.047-.032-.07.264-.116.533-.22.8-.333ZM51.7,58.937c.292.252.582.5.872.754-.9-.651-1.828-1.274-2.752-1.9Q50.772,58.344,51.7,58.937Zm11.35,4.4h0v0ZM65.287,34.99l.372-.177c-.228.161-.451.331-.677.5C65.086,35.2,65.185,35.1,65.287,34.99Zm-6.128,1.146c-.09.147-.186.291-.287.433a7.453,7.453,0,0,0-.18-.934c.074-.025.148-.052.223-.076C59,35.758,59.078,35.947,59.159,36.136ZM27.6,58.579l.006.008c-.062.136-.123.272-.185.407l-.151.214Q27.43,58.893,27.6,58.579ZM59.469,65.7l-.175-.113q-.5-.462-1-.934C58.69,65,59.079,65.352,59.469,65.7Zm-1.2-23.59c.047-.047.093-.1.14-.143.843-.754,1.692-1.5,2.551-2.23l-.094.09C59.995,40.578,59.132,41.343,58.271,42.111Zm.277-7.457c-.046.016-.094.026-.14.042l-.011-.032.118-.089ZM57,34.448c-.116-.153-.232-.307-.342-.465q.18-.086.361-.169c.069.161.135.323.2.485C57.152,34.35,57.078,34.4,57,34.448Zm-10.5-3.8q-.774-1.5-1.541-3.013c.1-.453.181-.909.267-1.364.462,1.464.947,2.92,1.493,4.355A.52.52,0,0,0,46.508,30.647ZM35.5,34.414c-.015,0-.03,0-.045,0l.089-.125ZM31.94,38.028c.047.027.095.051.142.077-.078.148-.163.293-.239.442-.136.264-.325.607-.519.992Q31.626,38.78,31.94,38.028Zm.881,3.561c-.051.132-.1.266-.151.4-.031.08-.066.159-.1.239a1.574,1.574,0,0,1-.164.144C32.547,42.111,32.687,41.851,32.82,41.589ZM34,61.662c.031-.024.064-.045.1-.069l.055-.041c.1-.057.2-.111.294-.168-.362.27-.724.541-1.089.808Zm10.012-5.834.159-.124c2.966,1.562,5.718,3.6,8.563,5.347.6.454,1.194.922,1.763,1.419-.564-.406-1.133-.8-1.713-1.179-1.124-.727-2.265-1.427-3.408-2.122C47.609,58.027,45.829,56.9,44.015,55.828Zm23.821,16.1c-.665-.836-1.346-1.658-2.032-2.475A31.337,31.337,0,0,0,64.6,64.7q1.768,3.617,3.364,7.316C67.922,71.983,67.877,71.955,67.836,71.924ZM66.458,35.165a.551.551,0,0,0-.3-.458c.01-.008.021-.01.031-.02.127-.12.266-.221.4-.329.379-.187.758-.372,1.13-.571a.434.434,0,0,0,.228-.306c.346-.177.7-.337,1.066-.483C68.147,33.7,67.315,34.457,66.458,35.165Zm-4.287-.453a6.383,6.383,0,0,0,.318-1.4c.22.237.449.469.683.7C62.84,34.245,62.5,34.469,62.171,34.712Zm-.843.243a.534.534,0,0,0,.366.123c-.368.278-.733.561-1.1.844-.013-.124-.026-.248-.043-.371a6.477,6.477,0,0,0,.261-.685.5.5,0,0,0-.482-.633l-.035.006c-.031-.129-.063-.258-.1-.386A11.212,11.212,0,0,0,61.328,34.955Zm-3.234-1.3-.068.051c-.037-.09-.075-.179-.113-.269l.062-.025C58.017,33.488,58.054,33.572,58.094,33.652Zm-8.594.007a.481.481,0,0,0-.055.145c0,.054,0,.106,0,.159L49.2,34.1q-.361-.859-.719-1.72l.316-.045C49.038,32.77,49.27,33.214,49.5,33.659ZM42.234,20.495l-.027-.064c.037-.087.074-.174.111-.26C42.291,20.279,42.264,20.387,42.234,20.495ZM37.374,34.33a.431.431,0,0,0-.025.2c-.3.052-.6.121-.9.2.087-.241.169-.483.255-.724.271-.022.544-.04.815-.066C37.472,34.068,37.422,34.2,37.374,34.33Zm-4.527,1.8c.053-.093.118-.179.173-.27-.023.075-.047.15-.071.225Zm-1.36.518-.046-.026a6.238,6.238,0,0,0-.105-2.175.436.436,0,0,0-.153-.237c.6,0,1.2-.009,1.793-.023A12.084,12.084,0,0,0,31.486,36.651ZM28.85,35.335c-.31-.126-.62-.25-.935-.36.006-.028.013-.056.019-.084.107-.532-.625-.905-.914-.385-.028.051-.052.1-.08.155-.14-.043-.28-.085-.42-.126.028-.143.062-.284.086-.429a.515.515,0,0,0,0-.062c.927.053,1.852.1,2.773.134Q29.108,34.752,28.85,35.335Zm-.4.9A24.345,24.345,0,0,1,26.8,39.46c.309-1.168.619-2.335.892-3.512C27.949,36.039,28.2,36.128,28.453,36.231Zm-1.972-.683c-.142.28-.289.557-.426.84q.133-.445.248-.895C26.363,35.51,26.422,35.53,26.481,35.548ZM25.4,34.225l-.128-.033a.47.47,0,0,0-.194-.236l.464.026Zm-.924-.234-.345-.087.44.025A.521.521,0,0,0,24.473,33.991Zm-3.617,2.242c.069-.069.14-.138.2-.209-.01.108-.011.22-.018.33Zm1.16.758.044-.049-.017.067ZM23.985,38.5q.361-.552.705-1.114-.221.666-.445,1.332Zm1.493,1.283c.147-.274.285-.553.425-.831q-.13.49-.257.98ZM26.9,41.057c.068-.087.128-.179.193-.267-.041.11-.082.221-.122.331Zm1.257,1.149c.836-1.633,1.454-3.367,2.136-5.078l.079.043c-.354,1.848-1.324,3.7-1.762,5.448Zm1.537,1.4c-.1-.093-.206-.188-.309-.282a.544.544,0,0,0,.078-.078,12.752,12.752,0,0,0,1.208-2.159,4.459,4.459,0,0,0-.2.948,17.992,17.992,0,0,0-.59,1.734C29.814,43.718,29.751,43.664,29.69,43.609ZM31,44.766c.191-.292.377-.587.556-.886a.948.948,0,0,0,.34.015c-.165.407-.327.815-.5,1.22C31.263,45,31.13,44.882,31,44.766ZM23.79,65.25c.043-.115.087-.229.129-.344a.507.507,0,0,0,.15.144c-.123.182-.248.363-.37.545l-.072.055C23.68,65.518,23.74,65.386,23.79,65.25Zm41.778,6.33-.268.29a5.118,5.118,0,0,1-.293-.9.434.434,0,0,0,.161.017c.173.156.346.314.522.468A.5.5,0,0,0,65.568,71.581Zm4.566-37.953c-1.106.915-2.246,1.786-3.4,2.641-.5.369-1,.729-1.508,1.092,2.021-1.8,4.271-3.977,6.647-5.152C71.31,32.762,70.589,33.252,70.134,33.628Zm-3.847-2.023c-.047.024-.1.046-.142.071a4.433,4.433,0,0,0-1.785.163,1.448,1.448,0,0,0-.917,1.02c-.307-.321-.606-.648-.909-.984a.5.5,0,0,0-.836.221c-.133.529-.18,1.057-.283,1.581-.289-.287-.563-.588-.833-.892.094-.094.192-.182.284-.279a.5.5,0,0,0-.487-.836c-.229.039-.45.095-.673.146-.06-.064-.118-.131-.179-.194a.479.479,0,0,0-.118-.086C61.7,31.523,63.994,31.561,66.287,31.605Zm-7.325-.068a.5.5,0,0,0-.272.554c-.1.032-.208.06-.31.094a4.87,4.87,0,0,0-.512-.634c.143,0,.286-.011.429-.013C58.518,31.535,58.74,31.54,58.962,31.538Zm-2.831.078q.15.448.331.888-.312.1-.621.209-.316-.519-.625-1.043C55.52,31.651,55.825,31.631,56.131,31.616Zm-2.178.146c.242.429.517.876.806,1.337q-.631.234-1.257.482c-.1-.066-.2-.115-.306-.175.11-.085.223-.164.331-.252.393-.32-.031-.98-.486-.836a14.832,14.832,0,0,0-1.8.716,1.85,1.85,0,0,0-1.052-.191c-.116-.216-.234-.431-.352-.646C51.208,32.022,52.578,31.874,53.952,31.762Zm-5.841-.308c-.075-.187-.153-.374-.227-.562-.123-.313-.225-.634-.342-.949.251.5.5.993.77,1.484C48.246,31.435,48.178,31.446,48.112,31.454ZM44.823,20.732c-.051.186-.095.374-.142.561-.008-.025-.018-.049-.026-.074,0-.444.017-.887.025-1.331C44.726,20.169,44.775,20.451,44.823,20.732Zm-.994-5.266c-.046.851-.1,1.7-.124,2.554a.4.4,0,0,0-.234.144.591.591,0,0,0-.3-.146,9.669,9.669,0,0,0,.495-2.186c.044-.463-.464-.584-.773-.378.189-.524.365-1.052.519-1.586C43.568,14.4,43.7,14.931,43.829,15.467Zm-1.226.776a12.136,12.136,0,0,1-.917,2.956c-.038-.085-.07-.172-.108-.257C41.9,18.037,42.261,17.142,42.6,16.242Zm-1.467,4.214c-.072.163-.144.326-.213.49.06-.19.118-.381.179-.57Zm-2.043,6.455c.265-.849.517-1.7.772-2.554-.288,1.243-.541,2.487-.929,3.7-.25.651-.5,1.3-.775,1.944-.162.386.283.688.625.612q-.44,1.126-.866,2.259c-.282.029-.564.053-.846.079C37.777,30.947,38.46,28.937,39.093,26.911ZM34.42,34.2c0-.018.007-.035.01-.052l.025,0Z"/><text x="0" y="105" fill="#000000" font-size="5px" font-weight="bold" font-family="'Helvetica Neue', Helvetica, Arial-Unicode, Arial, Sans-serif">Created by ME</text><text x="0" y="110" fill="#000000" font-size="5px" font-weight="bold" font-family="'Helvetica Neue', Helvetica, Arial-Unicode, Arial, Sans-serif">from the Noun Project</text></svg>